<svg width="208" height="53" viewBox="0 0 208 53" fill="none" xmlns="http://www.w3.org/2000/svg">
<g clip-path="url(#clip0_0_205)">
<path d="M74.6325 38.204C72.2752 38.204 70.1332 37.6827 68.2065 36.64C66.3025 35.5747 64.8065 34.124 63.7185 32.288C62.6532 30.452 62.1205 28.3893 62.1205 26.1C62.1205 23.8107 62.6532 21.748 63.7185 19.912C64.8065 18.076 66.3025 16.6367 68.2065 15.594C70.1332 14.5287 72.2752 13.996 74.6325 13.996C76.9899 13.996 79.1092 14.5173 80.9905 15.56C82.8945 16.6027 84.3905 18.0533 85.4785 19.912C86.5665 21.748 87.1105 23.8107 87.1105 26.1C87.1105 28.3893 86.5665 30.4633 85.4785 32.322C84.3905 34.158 82.8945 35.5973 80.9905 36.64C79.1092 37.6827 76.9899 38.204 74.6325 38.204ZM74.6325 35.96C76.5139 35.96 78.2139 35.5407 79.7325 34.702C81.2512 33.8407 82.4412 32.662 83.3025 31.166C84.1639 29.6473 84.5945 27.9587 84.5945 26.1C84.5945 24.2413 84.1639 22.564 83.3025 21.068C82.4412 19.5493 81.2512 18.3707 79.7325 17.532C78.2139 16.6707 76.5139 16.24 74.6325 16.24C72.7512 16.24 71.0399 16.6707 69.4985 17.532C67.9799 18.3707 66.7785 19.5493 65.8945 21.068C65.0332 22.564 64.6025 24.2413 64.6025 26.1C64.6025 27.9587 65.0332 29.6473 65.8945 31.166C66.7785 32.662 67.9799 33.8407 69.4985 34.702C71.0399 35.5407 72.7512 35.96 74.6325 35.96ZM101.454 19.98C103.131 19.98 104.65 20.3653 106.01 21.136C107.37 21.884 108.435 22.9493 109.206 24.332C109.977 25.7147 110.362 27.29 110.362 29.058C110.362 30.826 109.977 32.4013 109.206 33.784C108.435 35.1667 107.37 36.2433 106.01 37.014C104.65 37.7847 103.131 38.17 101.454 38.17C99.958 38.17 98.6094 37.8527 97.408 37.218C96.2294 36.5833 95.2774 35.6653 94.552 34.464V38H92.24V12.772H94.654V23.516C95.402 22.36 96.354 21.4873 97.51 20.898C98.6887 20.286 100.003 19.98 101.454 19.98ZM101.284 36.028C102.531 36.028 103.664 35.7447 104.684 35.178C105.704 34.5887 106.497 33.7613 107.064 32.696C107.653 31.6307 107.948 30.418 107.948 29.058C107.948 27.698 107.653 26.4853 107.064 25.42C106.497 24.3547 105.704 23.5387 104.684 22.972C103.664 22.3827 102.531 22.088 101.284 22.088C100.015 22.088 98.87 22.3827 97.85 22.972C96.8527 23.5387 96.0594 24.3547 95.47 25.42C94.9034 26.4853 94.62 27.698 94.62 29.058C94.62 30.418 94.9034 31.6307 95.47 32.696C96.0594 33.7613 96.8527 34.5887 97.85 35.178C98.87 35.7447 100.015 36.028 101.284 36.028ZM120.077 38.17C118.626 38.17 117.232 37.966 115.895 37.558C114.58 37.1273 113.549 36.5947 112.801 35.96L113.889 34.056C114.637 34.6453 115.578 35.1327 116.711 35.518C117.844 35.8807 119.023 36.062 120.247 36.062C121.879 36.062 123.08 35.8127 123.851 35.314C124.644 34.7927 125.041 34.0673 125.041 33.138C125.041 32.4807 124.826 31.9707 124.395 31.608C123.964 31.2227 123.42 30.9393 122.763 30.758C122.106 30.554 121.233 30.3613 120.145 30.18C118.694 29.908 117.527 29.636 116.643 29.364C115.759 29.0693 115 28.582 114.365 27.902C113.753 27.222 113.447 26.2813 113.447 25.08C113.447 23.584 114.07 22.36 115.317 21.408C116.564 20.456 118.298 19.98 120.519 19.98C121.675 19.98 122.831 20.1387 123.987 20.456C125.143 20.7507 126.095 21.1473 126.843 21.646L125.789 23.584C124.316 22.564 122.559 22.054 120.519 22.054C118.978 22.054 117.81 22.326 117.017 22.87C116.246 23.414 115.861 24.128 115.861 25.012C115.861 25.692 116.076 26.236 116.507 26.644C116.96 27.052 117.516 27.358 118.173 27.562C118.83 27.7433 119.737 27.936 120.893 28.14C122.321 28.412 123.466 28.684 124.327 28.956C125.188 29.228 125.925 29.6927 126.537 30.35C127.149 31.0073 127.455 31.914 127.455 33.07C127.455 34.634 126.798 35.8807 125.483 36.81C124.191 37.7167 122.389 38.17 120.077 38.17ZM139.33 38.17C137.562 38.17 135.975 37.7847 134.57 37.014C133.187 36.2433 132.099 35.1667 131.306 33.784C130.512 32.3787 130.116 30.8033 130.116 29.058C130.116 27.3127 130.512 25.7487 131.306 24.366C132.099 22.9833 133.187 21.9067 134.57 21.136C135.975 20.3653 137.562 19.98 139.33 19.98C140.871 19.98 142.242 20.286 143.444 20.898C144.668 21.4873 145.631 22.36 146.334 23.516L144.532 24.74C143.942 23.856 143.194 23.1987 142.288 22.768C141.381 22.3147 140.395 22.088 139.33 22.088C138.038 22.088 136.87 22.3827 135.828 22.972C134.808 23.5387 134.003 24.3547 133.414 25.42C132.847 26.4853 132.564 27.698 132.564 29.058C132.564 30.4407 132.847 31.6647 133.414 32.73C134.003 33.7727 134.808 34.5887 135.828 35.178C136.87 35.7447 138.038 36.028 139.33 36.028C140.395 36.028 141.381 35.8127 142.288 35.382C143.194 34.9513 143.942 34.294 144.532 33.41L146.334 34.634C145.631 35.79 144.668 36.674 143.444 37.286C142.22 37.8753 140.848 38.17 139.33 38.17ZM167.192 20.116V38H164.88V34.736C164.245 35.824 163.373 36.674 162.262 37.286C161.151 37.8753 159.882 38.17 158.454 38.17C156.119 38.17 154.272 37.524 152.912 36.232C151.575 34.9173 150.906 33.002 150.906 30.486V20.116H153.32V30.248C153.32 32.1293 153.785 33.5573 154.714 34.532C155.643 35.5067 156.969 35.994 158.692 35.994C160.573 35.994 162.058 35.4273 163.146 34.294C164.234 33.138 164.778 31.54 164.778 29.5V20.116H167.192ZM176.265 23.618C176.832 22.4167 177.67 21.51 178.781 20.898C179.914 20.286 181.308 19.98 182.963 19.98V22.326L182.385 22.292C180.504 22.292 179.03 22.87 177.965 24.026C176.9 25.182 176.367 26.8027 176.367 28.888V38H173.953V20.116H176.265V23.618ZM193.557 19.98C195.891 19.98 197.682 20.5693 198.929 21.748C200.175 22.904 200.799 24.6267 200.799 26.916V38H198.487V35.212C197.943 36.1413 197.138 36.8667 196.073 37.388C195.03 37.9093 193.783 38.17 192.333 38.17C190.338 38.17 188.751 37.694 187.573 36.742C186.394 35.79 185.805 34.532 185.805 32.968C185.805 31.4493 186.349 30.2253 187.437 29.296C188.547 28.3667 190.304 27.902 192.707 27.902H198.385V26.814C198.385 25.2727 197.954 24.1053 197.093 23.312C196.231 22.496 194.973 22.088 193.319 22.088C192.185 22.088 191.097 22.2807 190.055 22.666C189.012 23.0287 188.117 23.5387 187.369 24.196L186.281 22.394C187.187 21.6233 188.275 21.034 189.545 20.626C190.814 20.1953 192.151 19.98 193.557 19.98ZM192.707 36.266C194.067 36.266 195.234 35.96 196.209 35.348C197.183 34.7133 197.909 33.8067 198.385 32.628V29.704H192.775C189.715 29.704 188.185 30.7693 188.185 32.9C188.185 33.9427 188.581 34.77 189.375 35.382C190.168 35.9713 191.279 36.266 192.707 36.266Z" fill="white"/>
<ellipse cx="24.7876" cy="30" rx="24.7876" ry="23" fill="white"/>
<ellipse cx="22.0936" cy="31.5" rx="7.00518" ry="6.5" stroke="black" stroke-width="2" stroke-linecap="round" stroke-linejoin="round"/>
<path d="M18.9087 31.5C18.9087 29.868 20.3345 28.545 22.0934 28.545" stroke="black" stroke-width="2" stroke-linecap="round" stroke-linejoin="round"/>
<path fill-rule="evenodd" clip-rule="evenodd" d="M36.6428 19H34.4874C33.8925 19 33.4097 19.448 33.4097 20V22H37.7206V20C37.7206 19.448 37.2377 19 36.6428 19Z" stroke="black" stroke-width="2" stroke-linecap="round" stroke-linejoin="round"/>
<path fill-rule="evenodd" clip-rule="evenodd" d="M37.7204 22H29.6375L26.9432 17H16.166L13.4717 22H11.8551C10.6643 22 9.69971 22.895 9.69971 24V40C9.69971 41.105 10.6643 42 11.8551 42H37.7204C38.9113 42 39.8759 41.105 39.8759 40V24C39.8759 22.895 38.9113 22 37.7204 22Z" stroke="black" stroke-width="2" stroke-linecap="round" stroke-linejoin="round"/>
<path d="M18.3213 21H24.7876" stroke="black" stroke-width="2" stroke-linecap="round" stroke-linejoin="round"/>
<path d="M34.4873 26H36.6427" stroke="black" stroke-width="2" stroke-linecap="round" stroke-linejoin="round"/>
</g>
<defs>
<clipPath id="clip0_0_205">
<rect width="208" height="53" fill="white"/>
</clipPath>
</defs>
</svg>
